# xmcd CD database file
#
# Track frame offsets:
#	150
#	26367
#	52454
#	74440
#	100150
#	132095
#	156633
#	177819
#	201635
#	231988
#	250871
#	286087
#
# Disc length: 4412 seconds
#
# Revision: 0
# Processed by: cddbd v1.5.2PL0 Copyright (c) Steve Scherf et al.
# Submitted via: CDex 1.51
#
DISCID=b5113a0c
DTITLE=George Kahn - Midnight Brew
DYEAR=2002
DGENRE=Jazz
TTITLE0=Swiss Cheese
TTITLE1=Don't You Worry 'Bout A Thing
TTITLE2=A Bop For Billy
TTITLE3=I Heard It Through The Grapevine
TTITLE4=Otro Tu
TTITLE5=Midnight Brew
TTITLE6=Out Of Time
TTITLE7=Night Shadows
TTITLE8=Some Other Time
TTITLE9=Open House
TTITLE10=Night and Day
TTITLE11=12 Short Years
EXTD=YEAR: 2002
EXTT0=
EXTT1=
EXTT2=
EXTT3=
EXTT4=
EXTT5=
EXTT6=
EXTT7=
EXTT8=
EXTT9=
EXTT10=
EXTT11=
PLAYORDER=
